<?xml version="1.0" standalone="no"?>
<!DOCTYPE svg PUBLIC "-//W3C//DTD SVG 20010904//EN"
 "http://www.w3.org/TR/2001/REC-SVG-20010904/DTD/svg10.dtd">
<svg version="1.0" xmlns="http://www.w3.org/2000/svg"
 width="644.000000pt" height="1280.000000pt" viewBox="0 0 644.000000 1280.000000"
 preserveAspectRatio="xMidYMid meet">
<metadata>
Created by potrace 1.15, written by Peter Selinger 2001-2017
</metadata>
<g transform="translate(0.000000,1280.000000) scale(0.100000,-0.100000)"
fill="#000000" stroke="none">
<path d="M3080 12790 c-327 -46 -587 -175 -815 -404 -217 -218 -344 -468 -392
-771 -19 -122 -13 -381 12 -495 91 -413 359 -762 732 -953 211 -108 390 -151
633 -151 173 0 285 17 434 65 485 158 855 587 941 1093 22 130 22 332 0 461
-96 568 -528 1016 -1093 1135 -111 24 -350 34 -452 20z"/>
<path d="M2047 9855 c-137 -38 -239 -123 -328 -275 -96 -164 -1692 -3429
-1708 -3492 -60 -249 108 -497 406 -597 45 -15 88 -21 152 -21 152 0 257 44
352 148 49 53 89 130 398 763 190 387 348 708 353 713 4 6 8 -1470 8 -3280 0
-2783 3 -3299 14 -3355 43 -203 214 -381 421 -440 32 -9 100 -14 190 -14 121
0 150 3 213 24 142 46 269 152 336 280 71 136 66 -22 66 2098 l0 1913 330 0
330 0 0 -1908 c0 -2101 -4 -1955 62 -2092 22 -46 55 -89 112 -145 128 -127
249 -175 446 -175 184 0 315 48 432 158 77 73 120 136 157 230 l26 67 5 3330
5 3330 121 -245 c66 -135 208 -423 314 -640 106 -217 206 -414 221 -437 103
-150 317 -226 504 -178 80 21 198 77 262 126 143 108 222 320 180 484 -9 35
-206 448 -469 985 -250 509 -623 1269 -829 1690 -374 765 -374 765 -439 830
-68 68 -127 103 -213 126 -75 20 -2358 19 -2430 -1z"/>
</g>
</svg>
